#Comment line ignore any data following # character 
#Hierarchical Translation and Rotation (.htr) file 
[Header]	
#Header keywords are followed by a single value 
FileType HTR		#Single word string
DataType HTRS		#Translation followed by rotation and scale data
FileVersion 1		#integer
NumSegments 25		#integer
NumFrames 4		#integer
DataFrameRate 30		#integer, data frame rate in this file
EulerRotationOrder ZYX
CalibrationUnits mm
RotationUnits Degrees
GlobalAxisofGravity Y
BoneLengthAxis Y
ScaleFactor 1.00
[SegmentNames&Hierarchy]
#CHILD	PARENT
BN_Tick_Root GLOBAL
BN_Torso BN_Tick_Root
BN_L_Leg_Front01 BN_Torso
BN_L_Leg_Rear01 BN_Torso
BN_MetalTop BN_Torso
BN_Neck BN_Torso
BN_R_Leg_Front01 BN_Torso
BN_R_Leg_Rear01 BN_Torso
BN_Sack BN_Torso
BN_L_Leg_Front02 BN_L_Leg_Front01
BN_L_Leg_Front03 BN_L_Leg_Front02
BN_L_Leg_Rear02 BN_L_Leg_Rear01
BN_L_Leg_Rear03 BN_L_Leg_Rear02
BN_Head BN_Neck
BN_Needle BN_Head
BN_R_Leg_Front02 BN_R_Leg_Front01
BN_R_Leg_Front03 BN_R_Leg_Front02
BN_R_Leg_Rear02 BN_R_Leg_Rear01
BN_R_Leg_Rear03 BN_R_Leg_Rear02
BN_SackDef01 BN_Sack
BN_SackDef02 BN_Sack
BN_SackDef03 BN_Sack
BN_SackDef04 BN_Sack
BN_SackDef05 BN_Sack
BN_SackDef06 BN_Sack
[BasePosition]
#SegmentName Tx, Ty, Tz, Rx, Ry, Rz, BoneLength
BN_Tick_Root 0.000000 0.000000 0.000000 -90.000000 0.000000 0.000000 10.000000 
BN_Torso 0.000000 0.000000 0.000000 0.000000 0.000000 0.000000 10.000000 
BN_L_Leg_Front01 0.000000 0.000000 0.000000 0.000000 0.000000 0.000000 10.000000 
BN_L_Leg_Rear01 0.000000 0.000000 0.000000 0.000000 0.000000 0.000000 10.000000 
BN_MetalTop 0.000000 0.000000 0.000000 0.000000 0.000000 0.000000 10.000000 
BN_Neck 0.000000 0.000000 0.000000 0.000000 0.000000 0.000000 10.000000 
BN_R_Leg_Front01 0.000000 0.000000 0.000000 0.000000 0.000000 0.000000 10.000000 
BN_R_Leg_Rear01 0.000000 0.000000 0.000000 0.000000 0.000000 0.000000 10.000000 
BN_Sack 0.000000 0.000000 0.000000 0.000000 0.000000 0.000000 10.000000 
BN_L_Leg_Front02 0.000000 0.000000 0.000000 0.000000 0.000000 0.000000 10.000000 
BN_L_Leg_Front03 0.000000 0.000000 0.000000 0.000000 0.000000 0.000000 10.000000 
BN_L_Leg_Rear02 0.000000 0.000000 0.000000 0.000000 0.000000 0.000000 10.000000 
BN_L_Leg_Rear03 0.000000 0.000000 0.000000 0.000000 0.000000 0.000000 10.000000 
BN_Head 0.000000 0.000000 0.000000 0.000000 0.000000 0.000000 10.000000 
BN_Needle 0.000000 0.000000 0.000000 0.000000 0.000000 0.000000 10.000000 
BN_R_Leg_Front02 0.000000 0.000000 0.000000 0.000000 0.000000 0.000000 10.000000 
BN_R_Leg_Front03 0.000000 0.000000 0.000000 0.000000 0.000000 0.000000 10.000000 
BN_R_Leg_Rear02 0.000000 0.000000 0.000000 0.000000 0.000000 0.000000 10.000000 
BN_R_Leg_Rear03 0.000000 0.000000 0.000000 0.000000 0.000000 0.000000 10.000000 
BN_SackDef01 0.000000 0.000000 0.000000 0.000000 0.000000 0.000000 10.000000 
BN_SackDef02 0.000000 0.000000 0.000000 0.000000 0.000000 0.000000 10.000000 
BN_SackDef03 0.000000 0.000000 0.000000 0.000000 0.000000 0.000000 10.000000 
BN_SackDef04 0.000000 0.000000 0.000000 0.000000 0.000000 0.000000 10.000000 
BN_SackDef05 0.000000 0.000000 0.000000 0.000000 0.000000 0.000000 10.000000 
BN_SackDef06 0.000000 0.000000 0.000000 0.000000 0.000000 0.000000 10.000000 
#Beginning of Data. Separated by tabs
#Fr	Tx	Ty	Tz	Rx	Ry	Rz	SF
[BN_Tick_Root]
63 -44.487671 -290.929626 -0.000153 0.000000 0.000000 -11.409712 294.311371
64 -100.463928 -301.365845 -0.000156 0.000000 0.000000 -13.019863 317.670227
65 -145.119293 -309.691742 -0.000159 0.000000 0.000000 -14.243913 342.006714
66 -174.680298 -315.202972 -0.000162 0.000000 0.000000 -15.021786 360.369415
[BN_Torso]
63 -59.669903 -24.072418 214.161331 21.902431 -1.248869 -0.904832 223.618103
64 -79.156372 -34.551170 214.398102 23.412022 -1.300647 -3.859559 231.140778
65 -37.169746 -17.178377 214.398117 23.416300 -1.300851 -2.637083 218.273315
66 -9.811290 -4.696517 214.398117 23.414394 -1.300296 -1.858931 214.673874
[BN_L_Leg_Front01]
63 -68.477791 10.734189 -26.804373 -14.961905 51.001991 -171.873642 74.316254
64 -68.477791 10.734189 -26.804373 -5.559191 57.710709 -172.579819 74.316254
65 -68.477791 10.734189 -26.804373 -5.558728 57.711014 -172.579819 74.316254
66 -68.477791 10.734189 -26.804373 -5.558726 57.711014 -172.579819 74.316254
[BN_L_Leg_Rear01]
63 -72.133743 -73.994843 -18.268616 76.521248 18.152098 -116.774338 104.939293
64 -72.133743 -73.994843 -18.268616 70.843384 18.025341 -103.998169 104.939293
65 -72.133743 -73.994843 -18.268616 70.843117 18.025362 -103.997566 104.939293
66 -72.133743 -73.994843 -18.268616 70.843117 18.025360 -103.997566 104.939293
[BN_MetalTop]
63 0.000008 13.737477 26.403606 90.000008 -12.928561 -89.999992 29.763546
64 0.000008 13.737477 26.403606 90.000008 -12.928561 -89.999992 29.763546
65 0.000008 13.737477 26.403606 90.000008 -12.928561 -89.999992 29.763546
66 0.000008 13.737477 26.403606 90.000008 -12.928561 -89.999992 29.763546
[BN_Neck]
63 0.000014 95.233284 10.002091 -104.952751 -77.582207 92.678131 95.757088
64 0.000014 95.233284 10.002091 -104.952560 -77.582314 92.677902 95.757088
65 0.000014 95.233284 10.002091 -104.952560 -77.582314 92.677902 95.757088
66 0.000014 95.233284 10.002091 -104.952560 -77.582314 92.677902 95.757088
[BN_R_Leg_Front01]
63 68.477768 10.734107 -26.804314 18.824497 66.940186 27.699572 74.316193
64 68.477768 10.734107 -26.804314 21.985001 61.651768 26.830753 74.316193
65 68.477768 10.734107 -26.804314 21.985113 61.651474 26.830677 74.316193
66 68.477768 10.734107 -26.804314 21.985123 61.651489 26.830687 74.316193
[BN_R_Leg_Rear01]
63 72.133751 -73.994873 -18.268644 -87.111885 27.638386 -44.016621 104.939331
64 72.133751 -73.994873 -18.268644 -92.110207 28.963982 -30.605446 104.939331
65 72.133751 -73.994873 -18.268644 -92.110405 28.964060 -30.604824 104.939331
66 72.133751 -73.994873 -18.268644 -92.110405 28.964060 -30.604824 104.939331
[BN_Sack]
63 -0.000000 -78.024918 33.657791 89.998993 -1.373903 -90.000648 84.974907
64 -0.000000 -78.024918 33.657791 89.997002 -1.718161 -90.000282 84.974907
65 -0.000000 -78.024918 33.657791 89.996849 -2.166038 -90.000122 84.974907
66 -0.000000 -78.024918 33.657791 89.996689 -2.613985 -89.999947 84.974907
[BN_L_Leg_Front02]
63 142.805023 -0.000015 -0.000104 0.171096 0.353451 -98.169769 142.805023
64 142.805023 -0.000015 -0.000104 0.124250 0.498974 -111.913528 142.805023
65 142.805023 -0.000015 -0.000104 0.124247 0.498980 -111.914169 142.805023
66 142.805023 -0.000015 -0.000104 0.124247 0.498980 -111.914154 142.805023
[BN_L_Leg_Front03]
63 124.143021 -0.000045 0.000007 0.353200 -0.429668 106.594414 124.143021
64 124.143021 -0.000045 0.000007 0.353190 -0.386996 120.679688 124.143021
65 124.143021 -0.000045 0.000007 0.353190 -0.386994 120.680336 124.143021
66 124.143021 -0.000045 0.000007 0.353190 -0.386994 120.680336 124.143021
[BN_L_Leg_Rear02]
63 139.939041 0.000075 -0.000022 0.151442 -0.150803 66.625229 139.939041
64 139.939041 0.000075 -0.000022 0.120673 -0.202409 82.547241 139.939041
65 139.939041 0.000075 -0.000022 0.120671 -0.202411 82.547974 139.939041
66 139.939041 0.000075 -0.000022 0.120671 -0.202411 82.547974 139.939041
[BN_L_Leg_Rear03]
63 142.839615 0.000179 -0.000060 0.000286 0.002330 -76.003105 142.839615
64 142.839615 0.000179 -0.000060 0.000171 -0.002341 -98.379974 142.839615
65 142.839615 0.000179 -0.000060 0.000172 -0.002341 -98.380989 142.839615
66 142.839615 0.000179 -0.000060 0.000172 -0.002341 -98.380989 142.839615
[BN_Head]
63 57.062447 -0.000030 0.000000 -12.207412 -0.567998 -12.296799 57.062447
64 57.062447 -0.000030 0.000000 -12.207448 -0.567948 -12.296917 57.062447
65 57.062447 -0.000030 0.000000 -12.207448 -0.567948 -12.296917 57.062447
66 57.062447 -0.000030 0.000000 -12.207448 -0.567948 -12.296917 57.062447
[BN_Needle]
63 33.915192 69.677582 -0.000057 0.000003 0.000030 87.896805 77.493263
64 33.915192 69.677582 -0.000057 0.000003 0.000030 87.896805 77.493263
65 33.915188 69.677582 -0.000057 0.000003 0.000030 87.896805 77.493256
66 33.915188 69.677582 -0.000056 0.000003 0.000030 87.896805 77.493256
[BN_R_Leg_Front02]
63 142.804947 -0.000060 0.000060 -0.168100 0.367845 99.177673 142.804947
64 142.804947 -0.000060 0.000060 -0.206685 0.126480 76.204880 142.804947
65 142.804947 -0.000060 0.000060 -0.206685 0.126469 76.203812 142.804947
66 142.804947 -0.000060 0.000060 -0.206685 0.126469 76.203819 142.804947
[BN_R_Leg_Front03]
63 124.143005 -0.000060 -0.000156 -0.354308 -0.429205 -107.712921 124.143005
64 124.143005 -0.000060 -0.000156 -0.353594 -0.438777 -79.326607 124.143005
65 124.143005 -0.000060 -0.000156 -0.353594 -0.438778 -79.325325 124.143005
66 124.143005 -0.000060 -0.000156 -0.353594 -0.438778 -79.325325 124.143005
[BN_R_Leg_Rear02]
63 139.939011 -0.000149 0.000015 -0.139774 -0.188373 -75.848068 139.939011
64 139.939011 -0.000149 0.000015 -0.185083 -0.150831 -60.084389 139.939011
65 139.939011 -0.000149 0.000015 -0.185085 -0.150829 -60.083660 139.939011
66 139.939011 -0.000149 0.000015 -0.185085 -0.150829 -60.083652 139.939011
[BN_R_Leg_Rear03]
63 142.839417 0.000075 0.000119 0.002347 0.000014 89.307335 142.839417
64 142.839417 0.000075 0.000119 0.002296 0.000486 66.083923 142.839417
65 142.839417 0.000075 0.000119 0.002296 0.000486 66.082855 142.839417
66 142.839417 0.000075 0.000119 0.002296 0.000486 66.082855 142.839417
[BN_SackDef01]
63 249.782272 -3.760844 42.949425 -128.408218 -44.374973 -11.740845 253.475800
64 249.782272 -3.760844 42.949425 -128.408218 -44.374973 -11.740845 253.475800
65 249.782272 -3.760844 42.949425 -128.408218 -44.374973 -11.740845 253.475800
66 249.782272 -3.760844 42.949425 -128.408218 -44.374973 -11.740845 253.475800
[BN_SackDef02]
63 138.789795 -62.131748 45.674385 32.077126 -27.375721 -88.781525 158.773758
64 138.789795 -62.131748 45.674385 32.077126 -27.375721 -88.781525 158.773758
65 138.789795 -62.131748 45.674385 32.077126 -27.375721 -88.781525 158.773758
66 138.789795 -62.131748 45.674385 32.077126 -27.375721 -88.781525 158.773758
[BN_SackDef03]
63 249.782272 -3.760785 -42.949661 18.144459 44.375008 -11.740894 253.475845
64 249.782272 -3.760785 -42.949661 18.144459 44.375008 -11.740894 253.475845
65 249.782272 -3.760785 -42.949661 18.144459 44.375008 -11.740894 253.475845
66 249.782272 -3.760785 -42.949661 18.144459 44.375008 -11.740894 253.475845
[BN_SackDef04]
63 138.789780 -62.131645 -45.674473 146.059982 27.375723 -88.781555 158.773743
64 138.789780 -62.131645 -45.674473 146.059982 27.375723 -88.781555 158.773743
65 138.789780 -62.131645 -45.674473 146.059982 27.375723 -88.781555 158.773743
66 138.789780 -62.131645 -45.674473 146.059982 27.375723 -88.781555 158.773743
[BN_SackDef05]
63 118.790161 46.167137 -63.831196 0.155741 51.314110 90.605110 142.537460
64 118.790161 46.167137 -63.831196 0.155741 51.314110 90.605110 142.537460
65 118.790161 46.167137 -63.831196 0.155741 51.314110 90.605110 142.537460
66 118.790161 46.167137 -63.831196 0.155741 51.314110 90.605110 142.537460
[BN_SackDef06]
63 118.790207 46.167194 63.831219 152.058487 -51.314072 90.605019 142.537537
64 118.790207 46.167194 63.831219 152.058487 -51.314072 90.605019 142.537537
65 118.790207 46.167194 63.831219 152.058487 -51.314072 90.605019 142.537537
66 118.790207 46.167194 63.831219 152.058487 -51.314072 90.605019 142.537537
